Coordinates
version=1
nRows=19
nColumns=24
inDegrees=yes

Units are S.I. units (second, meters, Newtons, ...)
Angles are in degrees.

endheader
time	pelvis_tilt	pelvis_list	pelvis_rotation	pelvis_tx	pelvis_ty	pelvis_tz	hip_flexion_r	hip_adduction_r	hip_rotation_r	knee_angle_r	ankle_angle_r	subtalar_angle_r	mtp_angle_r	hip_flexion_l	hip_adduction_l	hip_rotation_l	knee_angle_l	ankle_angle_l	subtalar_angle_l	mtp_angle_l	lumbar_extension	lumbar_bending	lumbar_rotation
      2.34000000	     -6.57929190	     -2.67131894	      0.05881838	      0.60421469	      1.26914714	     -0.89070944	     -5.09068254	      7.04159698	     -1.88656231	    -29.14590773	    -12.37740462	     13.16648195	     18.70009734	     25.72188640	      5.09062093	      8.58608367	    -14.96205973	    -10.01207714	    -21.27293351	     -0.50492221	      0.52042657	     -0.12097563	     -2.20750783
      2.34500000	     -6.54868066	     -2.48672402	      0.17787037	      0.61028244	      1.27021621	     -0.89090912	     -4.20726985	      6.56143542	     -2.75289775	    -30.87513957	    -13.69486657	     13.03558392	     17.51580000	     25.07456967	      5.29681398	      8.55123098	    -14.69014619	     -9.60105728	    -20.95264017	     -0.62353401	      0.50994222	     -0.49399618	     -2.34887048
      2.35000000	     -6.51392904	     -2.32401009	      0.31970296	      0.61628667	      1.27128094	     -0.89121502	     -3.31351079	      6.07688274	     -3.62254885	    -32.57746670	    -14.82010325	     12.68646097	     17.42516081	     24.40357864	      5.49998917	      8.57679509	    -14.36336714	     -9.34837014	    -20.83152163	     -0.62083348	      0.48477193	     -0.81902545	     -2.55503642
      2.35500000	     -6.49431310	     -2.19931882	      0.44388951	      0.62225217	      1.27231812	     -0.89152876	     -2.40195614	      5.63836356	     -4.38711451	    -34.24808455	    -15.87281592	     12.13989328	     16.30940284	     23.74430074	      5.65209626	      8.56463291	    -14.03020986	     -8.94046955	    -20.59076240	     -0.63260044	      0.47294487	     -1.08563492	     -2.76115560
      2.36000000	     -6.47413899	     -2.08632573	      0.60728327	      0.62815907	      1.27332548	     -0.89195744	     -1.48336157	      5.18291609	     -5.18940144	    -35.88650088	    -16.63886477	     11.47896383	     16.05291272	     23.07854850	      5.81836775	      8.62875422	    -13.66943083	     -8.66658179	    -20.48047103	     -0.62538413	      0.44385002	     -1.32003804	     -3.06538119
      2.36500000	     -6.45269772	     -1.99428445	      0.71203820	      0.63398910	      1.27433589	     -0.89233877	     -0.54778507	      4.76048289	     -5.84539093	    -37.50145201	    -17.30277176	     10.70592829	     15.10502950	     22.39801144	      5.93029825	      8.61365972	    -13.27880394	     -8.32805392	    -20.26429553	     -0.60176990	      0.41758263	     -1.52382224	     -3.21494459
      2.37000000	     -6.43955500	     -1.93055726	      0.85890472	      0.63976249	      1.27529689	     -0.89283144	      0.39343016	      4.35696884	     -6.51741931	    -39.05990550	    -17.65212232	      9.73944335	     14.81781517	     21.73771266	      6.04144781	      8.67351452	    -12.89518080	     -8.06026056	    -20.18006499	     -0.59639367	      0.38152394	     -1.67061953	     -3.50711436
      2.37500000	     -6.42048180	     -1.89287329	      0.97011973	      0.64545279	      1.27625623	     -0.89330944	      1.34035784	      3.98905189	     -7.09816328	    -40.56486300	    -17.91699858	      8.66056716	     14.22781655	     21.07583521	      6.10796154	      8.68559707	    -12.51243567	     -7.75395135	    -20.02801689	     -0.56932340	      0.33895686	     -1.78342810	     -3.67430317
      2.38000000	     -6.42149053	     -1.87277947	      1.08659681	      0.65111622	      1.27718478	     -0.89381893	      2.30174168	      3.64870293	     -7.62454633	    -41.99884317	    -17.87858947	      7.49556564	     13.85664955	     20.41257494	      6.15731694	      8.73590599	    -12.07485130	     -7.50064233	    -19.91894499	     -0.55882579	      0.30770940	     -1.85346856	     -3.95158971
      2.38500000	     -6.40704966	     -1.87173995	      1.18435012	      0.65670718	      1.27811006	     -0.89432085	      3.25026105	      3.33448379	     -8.10178390	    -43.36355942	    -17.76070500	      6.29445654	     13.06808979	     19.74524026	      6.17556933	      8.74832963	    -11.65380001	     -7.19332477	    -19.68246103	     -0.52593891	      0.25964712	     -1.89803172	     -4.13111663
      2.39000000	     -6.40818025	     -1.89993018	      1.28659912	      0.66221740	      1.27898163	     -0.89487376	      4.21529009	      3.06194544	     -8.53519741	    -44.64806478	    -17.38838930	      4.95699254	     12.76767390	     19.11129092	      6.17529199	      8.79805416	    -11.24817794	     -6.95373109	    -19.63560845	     -0.52944174	      0.21034564	     -1.88814612	     -4.37874625
      2.39500000	     -6.40814719	     -1.94472755	      1.37671238	      0.66767465	      1.27984448	     -0.89542061	      5.17535377	      2.82003352	     -8.92075519	    -45.84147546	    -16.91256887	      3.55966550	     12.39961966	     18.47487727	      6.14889569	      8.84071058	    -10.83137558	     -6.70309907	    -19.52834702	     -0.52060230	      0.15637946	     -1.85135851	     -4.58919638
      2.40000000	     -6.40495202	     -1.99840218	      1.46757703	      0.67302294	      1.28067296	     -0.89598080	      6.13576370	      2.59898769	     -9.26411302	    -46.96062515	    -16.25269086	      2.16954273	     12.03606708	     17.85491298	      6.11347133	      8.90329516	    -10.43485610	     -6.48923099	    -19.39785999	     -0.50740162	      0.08134558	     -1.79467269	     -4.79488257
      2.40500000	     -6.42406954	     -2.07711443	      1.54295585	      0.67840282	      1.28147634	     -0.89652072	      7.09823399	      2.42353562	     -9.56884867	    -47.95388488	    -15.56227603	      0.68966868	     11.60243586	     17.24255205	      6.04291801	      8.93610981	    -10.00728588	     -6.21175675	    -19.29004283	     -0.49650443	      0.04423821	     -1.70093601	     -5.00173213
      2.41000000	     -6.42893995	     -2.15842015	      1.62292178	      0.68365198	      1.28223892	     -0.89706842	      8.05110315	      2.26539764	     -9.83554630	    -48.87336085	    -14.73179698	     -0.75931758	     11.15772574	     16.64264202	      5.97162087	      9.00067840	     -9.61448033	     -5.97157030	    -19.16395136	     -0.48271851	     -0.03186614	     -1.59750913	     -5.20496778
      2.41500000	     -6.44670415	     -2.25202384	      1.70746713	      0.68886056	      1.28296998	     -0.89762133	      9.00257888	      2.13403329	    -10.07665260	    -49.68124830	    -13.81651019	     -2.18044469	     10.71163416	     16.05996065	      5.88747209	      9.07739611	     -9.21689470	     -5.72770491	    -19.05542219	     -0.47341994	     -0.09643964	     -1.47451175	     -5.40860247
      2.42000000	     -6.47413269	     -2.35471870	      1.79498027	      0.69398922	      1.28365684	     -0.89817139	      9.95857308	      2.03216294	    -10.27885629	    -50.39042724	    -12.84134034	     -3.59122154	     10.24884727	     15.50618293	      5.79472411	      9.17957377	     -8.84059056	     -5.49178996	    -18.95684716	     -0.46384794	     -0.16018645	     -1.33901304	     -5.61468735
      2.42500000	     -6.49175845	     -2.45954993	      1.89640421	      0.69903314	      1.28429687	     -0.89873448	     10.89373806	      1.94607964	    -10.46279761	    -51.00153077	    -11.81196390	     -4.95586719	      9.77985278	     14.95759802	      5.70357451	      9.31856828	     -8.48101309	     -5.26668282	    -18.88037583	     -0.45455264	     -0.24905484	     -1.19295601	     -5.83340691
      2.43000000	     -6.52052309	     -2.56568727	      2.01399286	      0.70398585	      1.28488868	     -0.89929868	     11.83385888	      1.87739509	    -10.61991295	    -51.51612691	    -10.74669744	     -6.26926276	      9.31580779	     14.44474145	      5.61560881	      9.50126869	     -8.15007827	     -5.05721593	    -18.82532488	     -0.44426095	     -0.33629806	     -1.04825457	     -6.06514858
